<?xml version="1.0" encoding="UTF-8"?>
<svg version="1.2" baseProfile="tiny-ps" viewBox="0 0 300 300" xmlns="http://www.w3.org/2000/svg"><title>Oculon</title><g><g fill="#ededeb" transform="matrix(.1 0 0 -.1 0 300)"><path d="M0 1500v-1500h3000v3000h-3000v-1500z"/></g><g fill="#e8e8e5" transform="matrix(.1 0 0 -.1 0 300)"><path d="M0 1500v-1500h3000v3000h-3000v-1500zM1520 2444l75-16 90-43 90-43 66-56 67-55 47-60c25-34 64-96 85-139l40-77 21-80 21-80 1-95c1-52-2-121-6-153l-8-57-16-16-15-15-3-39c-2-22-6-44-10-50l-6-10-11 6-10 7 6-21 7-20-11-7-10-6v19c0 23-8 32-25 26l-13-5 4-22 4-22-11 28-11 27h-28v55l-11-15-11-15 6 25 5 25-14-19-15-20v13c0 8 5 31 12 53l12 39 18-4 18-5v14c0 8-4 14-9 14-5 0-12 7-15 16l-6 15 18 27 17 26-11-7-11-6 1 99 1 100h-7c-4 0-5 9-3 20l4 20h-10c-5 0-9 5-9 11 0 5-18 48-40 93l-39 83-62 69-62 69-44 23c-23 12-43 26-43 31 0 8-127 51-192 65-24 5-169 7-240 3-16-1-28-6-28-11v-8l-15 6-15 5v-8c0-5-12-12-26-15l-27-7-10 10c-6 6-15 11-21 11-5 0-2-6 8-13l18-13-42-17-41-16-15 6-14 5v-33l-22 6-21 7 7-17 6-18-15 13c-8 7-15 20-15 29v16l9-14 9-13 4 8c3 5 8 17 11 27l6 17-27-1h-27l20-8 20-9-25-3-25-4-3-23-3-22 8 2c9 3 13-5 13-27v-15l-12 2-12 3-1-15v-15l-22-1-22-1 5 9c3 4 8 6 12 4 4-2 14 6 23 18l16 21-28 2-29 2v-20l10 6 10 6v-10c0-20-19-11-35 17l-16 27 6-19 5-18-25 4-25 5-6-8c-3-5-11-9-17-9h-12l10 8c6 4 10 14 10 22v15l-20-3-20-2 59 54 59 54 76 44c198 116 384 147 611 102zM722 2141l10 14-5-17c-8-24 4-30 25-11 10 9 18 13 18 8 0-4 7-2 15 5l15 12 14-5 14-5-12-36-11-36-9 3c-6 2-12 9-14 17l-5 13 14-8 14-8-7 8-8 8 11 13 10 12-11 7-10 6v-29l-20 5-20 5v-11c0-6 4-11 9-11h9l-5-22-6-23 8 7 8 8 14-18 14-17-7 14-7 14 11-7 12-7-10-19c-6-10-15-22-22-26l-12-8-4 12c-5 16-29 15-39-2l-8-14-10 12c-10 11-17 52-7 42 3-3 12 3 19 14 8 11 18 18 22 16l8-5v29h-11c-6 0-19-7-30-15l-18-14-21 19-20 20 18 20 18 20 14-12 15-12 10 15zM1677 2111c46-36 123-118 123-130 0-3-53-5-117-4l-118 2-65-23c-36-13-91-35-122-50-32-15-60-27-63-26-3 0-14-9-24-21l-18-22-12 8-13 8 13 8 14 9-25-4-25-4-18 16-17 15-7-7-8-7 24-18 24-18-14-6-14-5 18-1 17-1v-31l-24 18-24 18 9 6 9 5-17 16c-10 8-35 19-57 22l-38 7 4-11c2-6 7-11 12-10 5 1 12-4 17-11l8-13-11-13-10-13h20c12 0 24-4 27-10 3-5 11-10 18-10h11l-20 15c-20 15-16 19 10 9l16-6v-45l-21-27-21-26-9 6-10 6 3-17 3-18-22-2-23-2v13c0 7-10 19-22 25l-23 12 12-15 13-15-7-6-6-7-14 18-14 17 10-22 11-21-17-6-16-7 11-11c7-7 12-16 12-21v-9l-16 6-15 6 6-10c10-15-3-12-25 7-25 21-26 33-2 27l17-5 1 30 1 31-18 5-19 6 16 25 16 24h30l-6 22-5 23 67 65c117 115 249 192 396 230 39 11 87 19 108 19l36 1 49-39zM2175 2010c70-51 148-139 195-218l39-67 25-75c46-138 56-266 32-400l-11-65-25 3-26 3-29-16-30-17 27 6 27 6-6-17-6-16 11 7 12 7-5-13-6-14h-43l-42-1-16 27-16 28 4 28c6 62 17 110 27 122l9 12h-17l-2 72c-3 116-41 237-100 314l-24 32 3 34c1 18-2 39-6 46-11 18-38 124-38 152v25l-32 28-31 28 25-12c14-7 48-29 75-49zM613 1950c-3-11-9-20-13-20h-8l5 20c3 11 9 20 13 20h8l-5-20zM674 1935l5-15-9-1c-6-1-17-2-25-3l-15-1 3 10c1 5 8 8 16 7l13-3-7 10-6 11h9c6 0 12-7 16-15zM571 1899c-5-13-10-19-10-12-1 15 10 45 15 40 3-2 0-15-5-28zM620 1896c0-2-9-6-20-9l-20-5v9c0 5 9 9 20 9 11 0 20-2 20-4zM1170 1855v-15h-32l12 15c7 8 14 15 16 15 2 0 4-7 4-15zM536 1823c-11-11-19 6-11 24l8 18 4-18c3-10 2-21-1-24zM583 1813c-7-2-19-2-25 0l-13 5h50l-12-5zM561 1777l-12-12 7 18c3 10 9 15 12 12 3-3 0-11-7-18zM619 1797c-2-1-13-9-24-17l-20-15 14 18c7 9 18 17 24 17 6 0 8-1 6-3zM671 1719c-31-134 5-327 90-475l29-51-1-39-1-39-7 35c-4 19-25 67-48 105-67 116-85 190-85 342l1 105 12 35c15 47 22 35 10-18zM993 1715c-1-5-7-11-15-13l-13-4 15 12 15 12-15-5-15-4-3-41-3-42h-10c-5 0-9 5-9 11v10l-12-7-13-8 14 17c7 9 10 17 7 17-4 0-1 10 6 23 7 12 11 26 10 30l-2 8 22-3 23-3-2-10zM511 1687l-12-12 7 18c3 10 9 15 12 12 3-3 0-11-7-18zM1103 1687l7 6v-11c0-6-5-14-12-18l-12-8-4 13-4 12-14-12-14-11v9c0 5 5 14 12 21l12 12 11-10 12-10 6 7zM1064 1635c-4-8-8-15-10-15-2 0-4 7-4 15 0 8 4 15 10 15h9l-5-15zM1075 1601c-8-14-25-14-25 0v10l10-6 10-6v12c0 7 3 10 6 6 3-3 3-10-1-16zM889 1526l-12-11 7 18c3 10 7 31 8 45l1 27 4-34 4-34-12-11zM1010 1596c0-2-8-10-17-17l-18-14 14 18c13 16 21 21 21 13zM1005 1550l6-10-15 6c-18 7-21 14-7 14 6 0 13-4 16-10zM1016 1328l-6-43 14-82 15-82 30-73c42-99 74-146 149-212 71-63 113-87 210-119l67-22 110 1 110 1 85 26 85 27 76 49 76 48 56 57c32 31 57 52 57 46 0-6-34-44-75-85l-75-75-86-41c-48-22-107-47-133-55l-46-15-95-5-95-6-70 15-71 15-62 30c-34 17-62 28-62 25 0-3-38 33-84 80l-84 85-26 51-26 51h-12c-6 0-9 2-6 5 3 3-5 42-18 87l-24 82v72c0 69 6 104 17 104 3 0 2-19-1-42zM1955 1350l-5-8-20 5-21 6-14-19-13-19 5-10 6-10-13 12-13 12 17 16c9 9 16 20 16 24v8l30-5 30-4-5-8zM1856 1292l3-12-5 9-5 10-16-6-16-6 7 12c9 14 29 10 32-7zM1780 1221c-16-31-134-127-202-165l-63-35-84-24-85-24-89-2-89-2-14 12c-8 6-14 15-14 19v7l63-9 62-9 76 10 75 10 73 27 73 27 72 47c39 26 89 66 111 89 44 46 51 50 35 22zM2423 1092c-3-9-8-20-10-25l-4-7-15 14c-8 8-14 19-14 24 0 13 21 21 37 15l12-5-6-16zM2255 1084l-2-26 23 5 24 4 17-13 18-13-22 6-23 5v-23l10 6 10 6v-9c0-6-7-12-15-15l-14-6-6 9c-4 6-3 15 1 22l7 11-11-7-11-6-6 10c-4 6-10 8-14 6l-8-5v14c0 8 4 15 9 15 4 0 7 3 7 8-2 11 1 22 5 22 2 0 3-12 1-26zM815 1044c17-59 15-84-3-37-14 36-25 93-19 93 3 0 13-25 22-56zM884 1054l6-15-10 6c-6 3-10 10-10 16 0 14 7 11 14-7zM2370 998c0-7-4-19-9-27l-8-13-8 11c-8 15 1 41 15 41 5 0 10-6 10-12zM859 920l12-25-15 19c-9 11-16 24-16 30 0 12 5 7 19-24zM934 2345l-19-14 28 1 27 2v13c0 17-12 16-36-2zM848 2283l-18-4v-28l17 6 16 6-6-16-6-17 9-1c6-1 15-2 21-3l12-1 3 30 3 31h-17c-9 1-25-1-34-3zM1017 2263c-3-4 1-14 9-20l13-13 5 9 6 9-14 11-14 12-5-8zM768 2213l12-5-6-9-5-9h10c6 0 11 7 11 15v15l-17-1-18-1 13-5zM814 2208l-7-11 11 7 10 6 4-12 4-11 22-2 23-2-4 11c-2 5-15 13-30 17l-27 7-6-10zM2010 1535c0-8 2-15 4-15 2 0 6 7 10 15l5 15h-9c-6 0-10-7-10-15zM2031 1444l1-19 5 13c3 7 2 16-1 19-3 4-6-2-5-13zM2051 1434l1-19 5 13c3 7 2 16-1 19-3 4-6-2-5-13zM1965 1410l-6-10h32l-6 10c-3 6-8 10-10 10-2 0-7-4-10-10zM2010 1413c8-3 21-10 28-16l12-10-6 17-6 16-22-1-21-1 15-5zM1968 1383c7-3 16-2 19 1 4 3-2 6-13 5l-19-1 13-5zM724 2046l-19-14 8-8 7-7v21l20-5 20-5-6 16c-7 19-6 19-30 2zM1626 2114l-6-15 16-6 15-6 11 11 10 10-20 11-20 11-6-16zM1353 2066l-23-13 7-6c12-13 32-7 43 13l11 20-8-1c-4-1-18-7-30-13zM1410 2036c0-10 28-13 41-5l14 9h-27c-16 0-28-2-28-4zM1250 2010l-15-10h45v10c0 13-11 13-30 0zM1098 1843c7-3 16-2 19 1 4 3-2 6-13 5l-19-1 13-5zM1065 1810c3-5 8-10 11-10 2 0 4 5 4 10 0 6-5 10-11 10h-10l6-10zM2310 1315c0-15 18-40 24-34 3 3-1 14-9 25-8 10-14 15-15 9zM2410 1300c0-5 5-10 11-10h10l-6 10c-3 6-8 10-11 10-2 0-4-4-4-10zM2345 1140l6-9 14 6c21 7 19 13-6 13h-20l6-10z"/></g><g fill="#c7c7c4" transform="matrix(.1 0 0 -.1 0 300)"><path d="M0 1500v-1500h3000v3000h-3000v-1500zM1544 2440c82-21 172-63 257-121l56-38 59-64c94-103 152-212 191-358l17-64-1-125-1-125-21-80c-43-160-127-300-253-421l-63-61-85-50c-95-55-160-82-268-108l-72-17-23 6-23 5-61 56c-34 31-75 72-91 93l-30 37 106-3 106-4 55 12 56 12 94 45 94 45 82 81 82 82 39 70c21 38 49 101 63 140l25 70-1 135v135l-26 67c-49 128-145 241-262 311l-60 36-70 21-70 22h-100l-100 1-65-17c-136-37-261-118-353-231l-49-60-40-84-40-85-14-80c-18-103-18-187 1-274 15-75 52-165 85-212l20-28v-29c0-42 37-179 66-242 13-29 24-55 24-57 0-2-35 23-79 56l-79 59-45 53c-94 112-152 229-181 371l-16 76v210l15 64c22 93 58 186 107 268l43 73 64 68c146 157 312 244 527 278l59 9 87-5 87-5 75-19zM1666 2122c41-30 144-138 144-151v-8l-57 9-58 9-76-10-76-10-66-24c-37-14-93-40-124-58l-58-34-76-77-76-77-42-83c-49-100-71-176-78-283l-6-80 17-78 16-78 37-77 38-77 62-66 63-66 57-31c32-16 90-40 128-52l70-21h190l60 16c33 8 97 33 142 56l83 40 88 83 87 84 47 83 47 84 21 85 22 85-5 115-4 115-22 58c-13 31-38 80-57 108l-34 51v23c0 13-9 51-19 86-10 35-22 81-25 101-4 21-13 43-20 50-7 8-19 24-25 37l-13 23 14-8c7-4 38-24 69-45l56-37 70-76 71-76 45-93c25-50 53-121 63-157l18-65 1-135v-135l-22-80c-49-178-130-310-270-436l-71-64-79-47-79-47-91-31-91-30-87-9-86-9-73 8c-92 11-116 16-201 48-125 45-234 126-320 234l-52 66-42 86-42 86-20 92-21 93 5 115 5 115 22 75c72 245 249 451 481 560 74 34 197 69 250 69l36 1 39-28z"/></g><g fill="#969693" transform="matrix(.1 0 0 -.1 0 300)"><path d="M0 1500v-1500h3000v3000h-3000v-1500zM1480 2456c93-17 192-53 267-97l58-34 86-85 86-85 41-71c177-306 138-689-99-975l-51-60-75-60-76-60-76-38c-85-43-182-75-256-85l-50-7-55 41c-50 37-119 112-140 149l-8 16h273l81 33 82 33 69 48 70 49 51 58 50 58 41 77 41 77 20 78 20 77v77c0 218-90 386-273 510l-48 32-82 29-82 29h-190l-63-15-63-15-77-37-76-38-65-60-64-60-48-69-48-68-31-79-30-78-11-93-12-93 16-90 16-90 46-91 45-90 10-59c13-81 37-161 66-217 13-26 24-50 24-52 0-3-36 20-80 51l-81 57-52 60c-67 77-108 142-146 232l-31 72-15 87-15 88v142l19 90 18 90 33 78c156 375 557 602 940 533zM1677 2116l58-44 36-49c20-26 39-53 42-58l6-11-69 9-69 10-83-16c-46-8-110-25-142-37l-59-23-76-51-76-52-58-69-58-69-34-71c-19-38-42-99-52-135l-17-65v-200l18-60c10-33 34-91 54-130l36-70 61-61 61-62 70-35c39-20 100-43 135-52l64-17 105 5 105 5 70 25c123 43 232 120 316 221l50 61 34 70 35 70 21 84 21 85-4 105-5 106-28 70c-15 39-41 88-56 109l-29 40v26c0 41-37 177-65 238-14 30-24 57-22 59 8 7 134-84 184-133 99-99 178-247 210-398l15-71-5-125-5-125-21-70c-47-158-129-292-248-406-122-118-254-190-416-229l-82-20h-186l-73 15c-301 62-539 300-603 600l-15 70 1 106v107l15 64c22 94 61 193 108 272l41 70 80 83 79 83 77 49c98 63 185 99 291 122 47 9 88 18 92 18 3 1 32-19 65-43z"/></g><g fill="#51514f" transform="matrix(.1 0 0 -.1 0 300)"><path d="M0 1500v-1500h3000v3000h-3000v-1500zM1560 2440c97-28 209-87 287-150l61-51 52-67 52-67 38-80c21-44 47-109 57-145l18-65-1-150-1-150-27-85c-56-171-132-289-262-408l-75-69-82-47-82-46-78-25c-43-14-102-28-132-31l-55-7-55 42-56 42-44 57c-25 31-45 59-45 62 0 3 57 5 128 5h127l55 19c226 77 394 245 460 461l21 70 6 75 5 75-15 80-15 80-25 55c-69 156-220 281-392 325l-59 15h-171l-64-15c-130-31-255-110-354-224l-48-55-39-78-38-77-17-77-17-76 5-111 5-112 21-60c12-33 35-82 52-110l31-49 9-61c13-83 36-160 65-218 14-27 24-53 22-58l-3-10-63 40-62 41-66 67-66 68-39 65c-52 87-84 169-103 262l-16 77v192l16 75c21 104 64 211 121 302l48 77 70 71 70 71 78 51 78 51 77 30c43 16 109 36 147 45l70 16 120-4 120-4 75-22zM1633 2149c41-22 116-90 152-138 19-27 35-50 35-53 0-2-53-4-117-3h-118l-75-23c-41-13-102-38-135-55l-60-32-86-85-86-85-41-85c-23-47-49-112-57-145l-16-60v-95l-1-95 17-59c8-33 29-88 46-123l31-64 65-70 66-70 62-34 62-35 78-20 78-20h132l70 15 70 14 85 43 85 42 91 91 91 90 41 85c23 47 50 114 59 150l17 65-1 100v100l-27 80c-15 44-40 100-56 125l-28 45-7 55c-9 70-40 171-71 233l-24 47h11c6 0 42-21 80-47l70-46 50-55c97-106 154-211 190-351l20-76 1-110v-110l-15-70c-8-39-29-106-46-150l-31-80-52-80-52-80-66-66c-113-113-243-190-397-234l-88-26-95-6-95-5-99 20-99 21-91 45-91 46-64 55-64 54-53 70c-64 86-108 174-136 278l-21 78v260l22 80 21 80 41 85 40 85 56 72c123 162 315 285 508 326 88 19 92 19 118 6z"/></g><g fill="#020302" transform="matrix(.1 0 0 -.1 0 300)"><path d="M0 1500v-1500h3000v3000h-3000v-1500zM1510 2455c39-8 105-29 145-46l74-30 69-49 69-48 57-64c97-106 157-224 191-373l16-70v-213l-15-63c-35-150-86-255-181-377l-55-70-75-61c-126-101-272-169-408-189l-58-9-42 27c-71 45-184 178-165 195 1 2 28-1 58-6l55-10 70 6 69 7 78 24 77 25 75 50 75 50 59 64 60 65 41 83c22 45 48 109 56 142l16 60v190l-16 60c-9 32-30 89-48 125l-32 65-70 71-71 71-74 37-75 36-75 16-75 16-84-6-83-6-77-26c-42-14-103-42-136-61l-60-36-72-74-72-74-46-92-45-92-15-70-15-70v-152l20-78 20-77 28-52c15-28 33-60 39-71 6-11 18-60 27-110l17-90 34-77 33-78h-11c-6 0-39 18-74 41l-62 41-65 68-64 68-42 71-43 71-28 83-28 82-11 92-11 93 10 88c15 119 35 190 81 290 118 251 349 439 612 496l63 14 107 1 107 1 71-15zM1656 2138c51-38 115-102 145-145 16-23 29-43 29-45 0-2-64-3-143-3l-142-1-67-26c-37-14-94-41-125-59l-57-34-66-65-66-65-36-60-37-60-27-80-27-80-5-100-4-100 16-65c9-36 32-98 52-138l35-72 53-58 54-57 63-38 64-38 70-21 70-22h95l95 1 64 17c132 36 262 120 353 229l51 62 38 78 38 79 17 75 17 75-5 97-5 96-22 65c-13 36-35 85-51 110l-29 45-10 65c-14 85-37 164-67 222-13 26-24 52-24 58v11l52-28 52-28 77-73 78-73 41-65c23-36 54-98 70-138l29-73 17-94 16-94-6-85-5-85-20-76c-53-205-170-382-341-511l-65-50-90-43c-49-24-119-52-155-62l-65-17-145-1h-145l-75 23c-152 48-277 131-380 253l-55 66-37 76c-21 41-48 110-60 154l-23 78 1 145 1 145 27 88c94 311 327 535 641 618 38 10 84 18 101 18l31 1 29-22z"/></g></g></svg>